<svg xmlns="http://www.w3.org/2000/svg" viewBox="0 0 64 64">
  <rect width="64" height="64" rx="16" fill="#171d2d"/>
  <path
    d="M12 35c1-12 8-20 19-22"
    fill="none"
    stroke="#60a5fa"
    stroke-linecap="round"
    stroke-width="7"
  />
  <path
    d="M52 35c-1-12-8-20-19-22"
    fill="none"
    stroke="#34d399"
    stroke-linecap="round"
    stroke-width="7"
  />
  <path
    d="M32 51S17 42 17 31c0-6 4-10 10-10 3 0 5 2 5 4 1-2 3-4 6-4 5 0 9 4 9 10 0 11-15 20-15 20Z"
    fill="#f59e0b"
  />
  <path
    d="M23 48c3 2 6 4 9 6 3-2 6-4 9-6"
    fill="none"
    stroke="#fff"
    stroke-linecap="round"
    stroke-width="3"
  />
</svg>
